{
  "source": "C:\\Users\\Peter\\Desktop\\stuff\\MIUN\\quantitative_research\\video_compression\\videos\\BVI-HD\\BVI-HD_CDVL_videos\\ORIG\\Toys_1920x1080_30fps.mp4",
  "output": "C:\\Users\\Peter\\Desktop\\stuff\\MIUN\\quantitative_research\\video_compression\\compressed_videos\\BVI-HD\\h264\\2.5\\Toys_1920x1080_30fps_h264.mp4",
  "codec": "h264",
  "ok": "Input #0, mov,mp4,m4a,3gp,3g2,mj2, from 'C:\\Users\\Peter\\Desktop\\stuff\\MIUN\\quantitative_research\\video_compression\\videos\\BVI-HD\\BVI-HD_CDVL_videos\\ORIG\\Toys_1920x1080_30fps.mp4':\n  Metadata:\n    major_brand     : isom\n    minor_version   : 512\n    compatible_brands: isomiso2avc1mp41\n    encoder         : Lavf54.28.101\n  Duration: 00:00:05.00, start: 0.000000, bitrate: 270887 kb/s\n  Stream #0:0[0x1](und): Video: h264 (High 4:4:4 Predictive) (avc1 / 0x31637661), yuv420p(progressive), 1920x1080, 270883 kb/s, 30 fps, 30 tbr, 30 tbn (default)\n    Metadata:\n      handler_name    : VideoHandler\n      vendor_id       : [0][0][0][0]\n[out#0/mp4 @ 000001d19f619a40] Codec AVOption b:a (set bitrate (in bits/s)) has not been used for any stream. The most likely reason is either wrong type (e.g. a video option with no video streams) or that it is a private option of some decoder which was not actually used for any stream.\nStream mapping:\n  Stream #0:0 -> #0:0 (h264 (native) -> h264 (libx264))\nPress [q] to stop, [?] for help\n[libx264 @ 000001d1a00e0a40] using cpu capabilities: MMX2 SSE2Fast SSSE3 SSE4.2 AVX FMA3 BMI2 AVX2\n[libx264 @ 000001d1a00e0a40] profile High, level 5.0, 4:2:0, 8-bit\n[libx264 @ 000001d1a00e0a40] 264 - core 165 r3222 b35605a - H.264/MPEG-4 AVC codec - Copyleft 2003-2025 - http://www.videolan.org/x264.html - options: cabac=1 ref=5 deblock=1:0:0 analyse=0x3:0x113 me=hex subme=8 psy=1 psy_rd=1.00:0.00 mixed_ref=1 me_range=16 chroma_me=1 trellis=2 8x8dct=1 cqm=0 deadzone=21,11 fast_pskip=1 chroma_qp_offset=-2 threads=18 lookahead_threads=3 sliced_threads=0 nr=0 decimate=1 interlaced=0 bluray_compat=0 constrained_intra=0 bframes=3 b_pyramid=2 b_adapt=1 b_bias=0 direct=3 weightb=1 open_gop=0 weightp=2 keyint=250 keyint_min=25 scenecut=40 intra_refresh=0 rc_lookahead=50 rc=cbr mbtree=1 bitrate=2500 ratetol=1.0 qcomp=0.60 qpmin=0 qpmax=69 qpstep=4 vbv_maxrate=2500 vbv_bufsize=2500 nal_hrd=none filler=0 ip_ratio=1.40 aq=1:1.00\nOutput #0, mp4, to 'C:\\Users\\Peter\\Desktop\\stuff\\MIUN\\quantitative_research\\video_compression\\compressed_videos\\BVI-HD\\h264\\2.5\\Toys_1920x1080_30fps_h264.mp4':\n  Metadata:\n    major_brand     : isom\n    minor_version   : 512\n    compatible_brands: isomiso2avc1mp41\n    encoder         : Lavf62.3.100\n  Stream #0:0(und): Video: h264 (avc1 / 0x31637661), yuv420p(tv, progressive), 1920x1080, q=2-31, 2500 kb/s, 30 fps, 15360 tbn (default)\n    Metadata:\n      encoder         : Lavc62.11.100 libx264\n      handler_name    : VideoHandler\n      vendor_id       : [0][0][0][0]\n    Side data:\n      cpb: bitrate max/min/avg: 2500000/0/2500000 buffer size: 2500000 vbv_delay: N/A\nframe=    0 fps=0.0 q=0.0 size=       0KiB time=N/A bitrate=N/A speed=N/A elapsed=0:00:00.52    \nframe=    0 fps=0.0 q=0.0 size=       0KiB time=N/A bitrate=N/A speed=N/A elapsed=0:00:01.06    \nframe=   13 fps=8.1 q=39.0 size=       0KiB time=00:00:00.30 bitrate=   1.3kbits/s speed=0.188x elapsed=0:00:01.59    \nframe=   37 fps= 17 q=38.0 size=     256KiB time=00:00:01.06 bitrate=1966.4kbits/s speed=0.491x elapsed=0:00:02.17    \nframe=   65 fps= 24 q=38.0 size=     512KiB time=00:00:02.10 bitrate=1997.5kbits/s speed=0.767x elapsed=0:00:02.73    \nframe=  100 fps= 31 q=38.0 size=     768KiB time=00:00:03.16 bitrate=1986.9kbits/s speed=0.971x elapsed=0:00:03.26    \nframe=  134 fps= 35 q=-1.0 size=    1024KiB time=00:00:04.40 bitrate=1906.6kbits/s speed=1.16x elapsed=0:00:03.77    \n[mp4 @ 000001d19f621400] Starting second pass: moving the moov atom to the beginning of the file\n[out#0/mp4 @ 000001d19f619a40] video:1254KiB audio:0KiB subtitle:0KiB other streams:0KiB global headers:0KiB muxing overhead: 0.207683%\nframe=  150 fps= 38 q=-1.0 Lsize=    1257KiB time=00:00:04.93 bitrate=2086.8kbits/s speed=1.24x elapsed=0:00:03.96    \n[libx264 @ 000001d1a00e0a40] frame I:1     Avg QP:35.43  size: 66755\n[libx264 @ 000001d1a00e0a40] frame P:38    Avg QP:37.15  size: 20457\n[libx264 @ 000001d1a00e0a40] frame B:111   Avg QP:42.57  size:  3958\n[libx264 @ 000001d1a00e0a40] consecutive B-frames:  0.7%  1.3%  2.0% 96.0%\n[libx264 @ 000001d1a00e0a40] mb I  I16..4: 22.9% 69.5%  7.6%\n[libx264 @ 000001d1a00e0a40] mb P  I16..4:  2.8%  4.4%  0.2%  P16..4: 45.6%  9.5%  4.6%  0.0%  0.0%    skip:32.9%\n[libx264 @ 000001d1a00e0a40] mb B  I16..4:  0.0%  0.0%  0.0%  B16..8: 35.3%  1.3%  0.1%  direct: 0.2%  skip:62.9%  L0:29.9% L1:68.8% BI: 1.2%\n[libx264 @ 000001d1a00e0a40] 8x8 transform intra:61.8% inter:82.0%\n[libx264 @ 000001d1a00e0a40] direct mvs  spatial:91.0% temporal:9.0%\n[libx264 @ 000001d1a00e0a40] coded y,uvDC,uvAC intra: 39.1% 26.9% 2.7% inter: 4.2% 1.9% 0.0%\n[libx264 @ 000001d1a00e0a40] i16 v,h,dc,p: 32% 24% 10% 34%\n[libx264 @ 000001d1a00e0a40] i8 v,h,dc,ddl,ddr,vr,hd,vl,hu:  8%  6%  8%  9% 16% 12% 17% 10% 13%\n[libx264 @ 000001d1a00e0a40] i4 v,h,dc,ddl,ddr,vr,hd,vl,hu:  9%  6%  5%  9% 16% 13% 18%  9% 16%\n[libx264 @ 000001d1a00e0a40] i8c dc,h,v,p: 80% 12%  5%  3%\n[libx264 @ 000001d1a00e0a40] Weighted P-Frames: Y:7.9% UV:0.0%\n[libx264 @ 000001d1a00e0a40] ref P L0: 77.1%  9.5% 10.5%  1.6%  1.2%  0.1%\n[libx264 @ 000001d1a00e0a40] ref B L0: 96.8%  2.6%  0.5%  0.1%\n[libx264 @ 000001d1a00e0a40] ref B L1: 99.2%  0.8%\n[libx264 @ 000001d1a00e0a40] kb/s:2053.45\n",
  "seconds": 4.223331451416016,
  "probe_out": {}
}